# xmcd
#
# Track frame offsets:
#	150
#	12806
#	29853
#	41706
#	56902
#	70081
#	86127
#	97221
#	110233
#	122702
#	134347
#	147052
#	160382
#	172262
#
# Disc length: 2474 seconds
#
# Revision: 1
# Processed by: cddbd v1.5.2PL0 Copyright (c) Steve Scherf et al.
# Submitted via: audiograbber 1.83.01
#
DISCID=d909a80e
DTITLE=Tanya Tucker - Dreamlovers
DYEAR=1980
DGENRE=Country
TTITLE0=Can I See You Tonight
TTITLE1=Love Knows We Tried
TTITLE2=I've Got Somebody
TTITLE3=Let Me Count The Ways
TTITLE4=Dream Lover (w/Glen Campbell)
TTITLE5=Somebody (Trying To Tell You Something)
TTITLE6=All The Way
TTITLE7=Tennessee Woman
TTITLE8=Don't You Want To Be A Lover Tonight
TTITLE9=My Song
TTITLE10=Pecos Promenade (*)
TTITLE11=Bronco (*)
TTITLE12=Why Don't We Just Sleep (*)
TTITLE13=On It Tonight (*)
EXTD=
EXTT0=
EXTT1=
EXTT2=
EXTT3=
EXTT4=
EXTT5=
EXTT6=
EXTT7=
EXTT8=
EXTT9=
EXTT10=
EXTT11=
EXTT12=
EXTT13=
PLAYORDER=
